# xmcd CD database file
#
# Track frame offsets:
#	150
#	15540
#	34059
#	53393
#	69656
#	80775
#	107081
#	122728
#	141565
#	160306
#	178443
#	199149
#	218805
#
# Disc length: 3090 seconds
#
# Revision: 0
# Processed by: cddbd v1.5.2PL0 Copyright (c) Steve Scherf et al.
# Submitted via: CDex 1.77
#
DISCID=c00c100d
DTITLE=Don Michael Sampson - Powder Blue Skies
DYEAR=1990
DGENRE=Country
TTITLE0=Old Spanish Highway
TTITLE1=Wide Open Plains
TTITLE2=Spirit Song
TTITLE3=Powder Blue Skies
TTITLE4=Bad Dog Road
TTITLE5=White Adobe Windows
TTITLE6=Sante Fe Rose
TTITLE7=High Road Home
TTITLE8=Sound of Spanish Voices
TTITLE9=Borderline
TTITLE10=Man With Black Guitar
TTITLE11=Light Again
TTITLE12=Bird Song
EXTD=YEAR: 1990
EXTT0=
EXTT1=
EXTT2=
EXTT3=
EXTT4=
EXTT5=
EXTT6=
EXTT7=
EXTT8=
EXTT9=
EXTT10=
EXTT11=
EXTT12=
PLAYORDER=
